<?xml version="1.0" standalone="no"?>
<!DOCTYPE svg PUBLIC "-//W3C//DTD SVG 20010904//EN"
 "http://www.w3.org/TR/2001/REC-SVG-20010904/DTD/svg10.dtd">
<svg version="1.0" xmlns="http://www.w3.org/2000/svg"
 width="336.000000pt" height="18.000000pt" viewBox="0 0 336.000000 18.000000"
 preserveAspectRatio="xMidYMid meet">
<metadata>
Created by potrace 1.16, written by Peter Selinger 2001-2019
</metadata>
<g transform="translate(0.000000,18.000000) scale(0.100000,-0.100000)"
fill="#c67412" stroke="none">
<path d="M2735 160 c-255 -21 -1025 -46 -1715 -56 -463 -7 -641 -22 -275 -23
423 -2 1460 -31 1850 -53 272 -15 286 -15 374 10 40 12 120 27 177 34 57 7
104 15 104 18 0 3 -46 11 -102 18 -57 6 -137 21 -178 32 -99 28 -117 29 -235
20z"/>
</g>
</svg>
