<?xml version="1.0" standalone="no"?>
<!DOCTYPE svg PUBLIC "-//W3C//DTD SVG 20010904//EN"
 "http://www.w3.org/TR/2001/REC-SVG-20010904/DTD/svg10.dtd">
<svg version="1.0" xmlns="http://www.w3.org/2000/svg"
 width="336.000000pt" height="18.000000pt" viewBox="0 0 336.000000 18.000000"
 preserveAspectRatio="xMidYMid meet">
<metadata>
Created by potrace 1.16, written by Peter Selinger 2001-2019
</metadata>
<g transform="translate(0.000000,18.000000) scale(0.100000,-0.100000)"
fill="#6e4ccc" stroke="none">
<path d="M2725 160 c-89 -7 -367 -20 -745 -34 -69 -3 -415 -10 -770 -17 -355
-6 -652 -15 -660 -20 -9 -5 14 -8 60 -8 41 0 194 -3 340 -5 146 -3 416 -8 600
-11 184 -3 362 -8 395 -10 33 -3 143 -7 245 -10 292 -7 624 -27 631 -38 4 -6
33 -2 78 12 40 12 76 19 81 16 6 -3 10 -2 10 3 0 10 95 29 197 38 40 4 70 10
68 14 -2 4 -37 10 -76 14 -82 7 -221 35 -229 44 -12 16 -111 21 -225 12z"/>
</g>
</svg>
