<?xml version="1.0" standalone="no"?>
<!DOCTYPE svg PUBLIC "-//W3C//DTD SVG 20010904//EN"
 "http://www.w3.org/TR/2001/REC-SVG-20010904/DTD/svg10.dtd">
<svg version="1.0" xmlns="http://www.w3.org/2000/svg"
 width="345.000000pt" height="18.000000pt" viewBox="0 0 345.000000 18.000000"
 preserveAspectRatio="xMidYMid meet">
<metadata>
Created by potrace 1.16, written by Peter Selinger 2001-2019
</metadata>
<g transform="translate(0.000000,18.000000) scale(0.100000,-0.100000)"
fill="#0e32de" stroke="none">
<path d="M23 137 c16 -29 45 -53 92 -80 l40 -22 1638 -3 c901 -1 1637 1 1635
5 -2 5 -10 20 -17 35 l-14 28 -361 1 c-199 1 -382 1 -408 -1 -31 -1 -48 2 -48
10 0 6 -5 8 -11 4 -6 -3 -351 -6 -768 -6 -1761 2 -1639 0 -1697 19 -30 9 -54
19 -54 23 0 3 -9 6 -20 7 -17 2 -18 -1 -7 -20z"/>
</g>
</svg>
