<?xml version="1.0" encoding="UTF-8" standalone="no"?>
<svg
   xmlns="http://www.w3.org/2000/svg"
   viewBox="0 0 390.27463 13.217135"
   height="13.217135"
   width="390.27463"
   id="svg2"
   version="1.1">
  <metadata
     id="metadata8">
    image/svg+xml
  </metadata>
  <defs
     id="defs6" />
  <g
     transform="translate(-22.032632,-27.059307)"
     id="g10"
  >
    <g
       transform="translate(4.350372,-4.350372)"
       id="g837">
      <path
         id="path867"
         d="M 194,44.50631 C 190.28001,43.461974 104.6157,41.274512 39.249186,40.554705 21.158798,40.355496 14.894711,39.654647 18.791738,38.265849 c 1.003076,-0.35747 1.027099,-0.779211 0.107499,-1.887261 -1.637497,-1.973063 -1.247902,-2.164996 6.642754,-3.272542 9.448322,-1.326184 115.799279,-2.11097 136.958009,-1.010642 33.54839,1.744633 81.10699,2.242337 90.57907,0.947917 6.25345,-0.854574 30.77771,-1.26961 81.67882,-1.38229 L 407.5,31.5 l 0.30838,4.268053 c 0.36203,5.01064 -2.17972,9.108875 -5.32833,8.591203 C 398.40464,43.689206 270.04799,43.61111 233.5,44.256443 212.6,44.625477 194.825,44.737917 194,44.50631 Z"
         style="fill:#e6fcd2" />
      <path
         id="path865"
         d="M 187.5,43.933214 C 180.35,43.47259 150.2,42.627131 120.5,42.054416 90.8,41.481701 62.675,40.62082 58,40.141347 53.325,39.661874 42.6375,39.474018 34.25,39.723889 23.640164,40.039965 19,39.846816 19,39.0891 c 0,-0.599005 0.7875,-1.103412 1.75,-1.120903 1.589062,-0.02888 1.572784,-0.165876 -0.176999,-1.489668 -1.05985,-0.801825 -1.73485,-1.648999 -1.5,-1.882609 1.735244,-1.726085 35.277156,-2.423382 95.426999,-1.983816 121.17503,0.885528 137.79873,0.886938 151,0.01281 7.15,-0.473443 42.025,-0.908654 77.5,-0.967135 l 64.5,-0.10633 -0.0637,4.737977 c -0.035,2.605888 -0.62074,5.294313 -1.30156,5.974278 C 405.17529,43.221937 389.10815,43.5 334.69844,43.5 296.0893,43.5 250.1,43.78591 232.5,44.135356 c -17.6,0.349446 -37.85,0.258482 -45,-0.202142 z M 31,37 C 32.135249,36.266346 31.695355,36.026902 29.190983,36.015313 27.236436,36.006268 26.134944,36.409327 26.5,37 c 0.776412,1.256262 2.556074,1.256262 4.5,0 z"
         style="fill:#d5f5c9" />
      <path
         id="path863"
         d="M 193,43.990231 C 183.925,43.59068 166.15,42.741732 153.5,42.103679 139.94751,41.420105 120.84711,41.208964 107,41.589653 90.108482,42.054041 80.266062,41.861392 72,40.904584 65.675,40.172456 51.195561,39.572954 39.823468,39.572356 28.451376,39.571758 19.365433,39.217733 19.632485,38.785634 19.899537,38.353535 22.539919,38 25.5,38 28.498394,38 31.198883,37.487217 31.597547,36.842166 32.11858,35.999117 30.979163,35.832969 27.406564,36.231044 22.495867,36.778216 17.772652,35.876577 19.607919,34.74232 22.506693,32.950778 54.859138,32.229505 114,32.637921 c 89.703,0.619472 134.31577,0.603524 182.5,-0.06524 80.92183,-1.123137 108.99893,-1.188818 110.25,-0.257906 1.87998,1.398875 1.50343,6.093324 -0.71497,8.913565 l -1.96498,2.498058 -49.47819,-0.272554 C 327.37886,43.303941 301.82559,42.874318 297.80683,42.499129 293.78808,42.12394 281.95,42.291914 271.5,42.872404 244.44102,44.37551 212.1838,44.834848 193,43.990231 Z"
         style="fill:#cbf3aa" />
      <path
         id="path861"
         d="M 175,42.92963 C 171.425,42.41661 144.65,41.643816 115.5,41.21231 86.35,40.780805 62.004908,40.121613 61.399796,39.74744 60.794684,39.373266 53.911151,39.010973 46.103056,38.942344 34.014986,38.836096 32.080166,38.608332 33.075704,37.408782 c 0.643052,-0.77483 2.576585,-1.468021 4.296741,-1.540423 L 40.5,35.736718 37,35.052683 c -3.380185,-0.660617 -3.311719,-0.706485 2,-1.339878 11.613982,-1.384904 116.05183,-1.910326 131.5,-0.66157 18.76086,1.516537 74.72871,1.513144 91.85342,-0.0056 7.06938,-0.626951 29.56938,-1.115173 50,-1.084936 20.43062,0.03024 49.74658,-0.06757 65.14658,-0.217348 15.4,-0.149778 28.5625,0.126788 29.25,0.614592 1.87234,1.328487 1.50666,6.046021 -0.68461,8.831761 l -1.9346,2.459453 -52.3154,-0.510016 C 291.70568,42.55317 293.17499,42.551252 229.5,43.298842 201.75033,43.624642 178.75777,43.468879 175,42.92963 Z M 21.5,39 c 0.339919,-0.55 1.603976,-0.993109 2.809017,-0.984687 C 26.090251,38.027762 26.219476,38.211914 25,39 c -1.970116,1.273187 -4.286873,1.273187 -3.5,0 z m 4,-4 c 1.1,-0.472686 3.125,-0.884167 4.5,-0.914402 1.970368,-0.04333 2.182221,0.150392 1,0.914402 -0.825,0.533156 -2.85,0.944637 -4.5,0.914402 -2.575717,-0.0472 -2.717145,-0.17652 -1,-0.914402 z"
         style="fill:#b5eb88" />
      <path
         id="path859"
         d="M 175.5,42.981008 C 171.65,42.501581 149.375,41.635765 126,41.056972 80.80171,39.937809 60.132979,38.761456 55.637617,37.052322 54.115318,36.473545 50.574096,36 47.768234,36 44.962372,36 42.94737,35.719297 43.290452,35.376215 43.633533,35.033133 52.821033,34.631817 63.707118,34.484402 74.593203,34.336986 88.9,33.83019 95.5,33.358187 c 17.57419,-1.256828 61.92905,-1.047468 94,0.44369 22.81857,1.060964 32.3487,1.066115 51.5,0.02784 12.925,-0.700722 40.375,-1.368928 61,-1.484903 20.625,-0.115975 52.35,-0.375212 70.5,-0.576081 19.17057,-0.212165 33.52384,0.02062 34.25,0.55547 1.87054,1.37775 1.50753,6.078682 -0.68461,8.865535 l -1.9346,2.459453 -52.3154,-0.510016 C 291.61695,42.552305 292.90985,42.550677 230,43.292546 203.875,43.600627 179.35,43.460435 175.5,42.981008 Z M 67.729167,36.395833 c -0.332292,-0.332291 -1.194792,-0.367818 -1.916667,-0.07895 -0.797733,0.319226 -0.560776,0.556183 0.604167,0.604167 1.054166,0.04342 1.644791,-0.192928 1.3125,-0.52522 z"
         style="fill:#a6d68c" />
      <path
         id="path857"
         d="M 187.5,43.382387 C 158.81841,41.120131 133.03947,39.990149 111,40.029123 83.338958,40.078038 60.340576,38.840384 55.629903,37.049389 54.111847,36.472225 50.574096,36 47.768234,36 44.962372,36 42.928956,35.737711 43.249532,35.417134 43.570108,35.096558 55.600321,34.654444 69.983338,34.434657 84.366356,34.21487 96.48996,33.815222 96.924681,33.54655 97.925903,32.92776 165.29157,32.782009 170,33.388445 c 1.925,0.247936 17,0.771454 33.5,1.163373 24.32598,0.577808 34.44465,0.379332 53.5,-1.049391 18.75376,-1.406112 29.45804,-1.629567 53,-1.10639 18.01541,0.400359 35.31488,0.238754 44.43644,-0.415107 10.67702,-0.765362 17.52338,-0.761814 24.00805,0.01244 6.30246,0.752501 11.79426,0.773761 17.99094,0.06965 10.52896,-1.196383 12.06637,-0.542651 11.20511,4.764621 -1.105,6.809317 -1.75169,7.012818 -20.44532,6.433741 C 378.01285,42.976937 368.7,42.744172 366.5,42.744127 c -2.2,-4.6e-5 -15.925,-0.02226 -30.5,-0.04935 -43.02163,-0.07999 -63.27388,0.03065 -104.5,0.570908 -21.45,0.281095 -41.25,0.333613 -44,0.116707 z M 67.729167,36.395833 c -0.332292,-0.332291 -1.194792,-0.367818 -1.916667,-0.07895 -0.797733,0.319226 -0.560776,0.556183 0.604167,0.604167 1.054166,0.04342 1.644791,-0.192928 1.3125,-0.52522 z"
         style="fill:#a9eb74" />
      <path
         id="path855"
         d="m 189.5,43.460543 c -1.65,-0.1963 -15.15,-1.072678 -30,-1.947507 C 124.82932,39.470552 126,39.664792 126,35.954687 V 33 l 10.25,-0.184712 c 11.20315,-0.201888 28.22365,0.142046 33.75,0.681988 1.925,0.188079 17,0.662623 33.5,1.054542 24.32598,0.577808 34.44465,0.379332 53.5,-1.049391 18.75376,-1.406112 29.45804,-1.629567 53,-1.10639 18.01541,0.400359 35.31488,0.238754 44.43644,-0.415107 10.67702,-0.765362 17.52338,-0.761814 24.00805,0.01244 6.30246,0.752501 11.79426,0.773761 17.99094,0.06965 10.52896,-1.196383 12.06637,-0.542651 11.20511,4.764621 -1.105,6.809317 -1.75169,7.012818 -20.44532,6.433741 C 378.01285,42.976937 368.7,42.744172 366.5,42.744127 c -2.2,-4.6e-5 -15.925,-0.02226 -30.5,-0.04935 -43.48466,-0.08085 -63.47765,0.03227 -104.5,0.591253 -21.45,0.292286 -40.35,0.370819 -42,0.174518 z"
         style="fill:#8ed268" />
      <path
         id="path853"
         d="m 196.8125,43.316886 c 0.72187,-0.288871 1.58437,-0.253344 1.91667,0.07895 0.33229,0.332292 -0.25834,0.568641 -1.3125,0.52522 -1.16495,-0.04798 -1.4019,-0.284941 -0.60417,-0.604167 z m 2.8017,-0.879875 C 199.307,41.636452 198.70563,41.038913 198.27783,41.109146 196.20079,41.450134 195,40.860643 195,39.5 c 0,-0.825 -0.7875,-1.528524 -1.75,-1.563386 -1.47947,-0.05359 -1.44082,-0.184838 0.25,-0.849029 1.1,-0.432103 3.575,-1.077951 5.5,-1.435216 2.64011,-0.489985 3.13148,-0.385 2,0.427318 -1.14238,0.820147 -0.78476,0.915583 1.5,0.400298 1.65,-0.372127 12.9,-1.027937 25,-1.457356 12.1,-0.42942 28.75,-1.342232 37,-2.028472 10.33578,-0.859736 24.32845,-1.045579 45,-0.597665 18.27523,0.39599 35.83754,0.232584 44.93644,-0.418104 10.66781,-0.762886 17.52898,-0.758604 24.00805,0.01498 6.30246,0.752501 11.79426,0.773761 17.99094,0.06965 10.52896,-1.196383 12.06637,-0.542651 11.20511,4.764621 -1.105,6.809317 -1.75169,7.012818 -20.44532,6.433741 C 378.01285,42.976937 368.7,42.744172 366.5,42.744127 c -2.2,-4.6e-5 -15.925,-0.02226 -30.5,-0.04935 -40.49207,-0.07529 -62.28451,0.06697 -100.66362,0.657107 -30.20301,0.464417 -35.24242,0.335354 -35.72218,-0.914868 z m 1.24256,-2.546698 C 199.75007,39.189079 199.77647,39.024981 201,39 c 1.33333,-0.02722 1.33333,-0.138334 0,-1 -0.825,-0.533156 -2.175,-0.944637 -3,-0.914402 -0.98906,0.03625 -0.81874,0.34772 0.5,0.914402 1.1,0.472686 1.41976,0.891058 0.71057,0.929715 -1.05257,0.05737 -1.05257,0.326543 0,1.465325 0.70919,0.767271 1.67497,1.161021 2.14619,0.875 0.47122,-0.286022 0.24622,-0.906899 -0.5,-1.379727 z"
         style="fill:#8cb685" />
      <path
         id="path851"
         d="m 196.8125,43.316886 c 0.72187,-0.288871 1.58437,-0.253344 1.91667,0.07895 0.33229,0.332292 -0.25834,0.568641 -1.3125,0.52522 -1.16495,-0.04798 -1.4019,-0.284941 -0.60417,-0.604167 z m 2.80551,-0.869951 c -0.3093,-0.806017 -0.91238,-1.408022 -1.34018,-1.337789 C 196.20079,41.450134 195,40.860643 195,39.5 c 0,-0.825 -0.7875,-1.528524 -1.75,-1.563386 -1.47947,-0.05359 -1.44082,-0.184838 0.25,-0.849029 1.1,-0.432103 3.575,-1.077951 5.5,-1.435216 2.64011,-0.489985 3.13148,-0.385 2,0.427318 -1.14345,0.820914 -0.7869,0.918041 1.5,0.408612 1.65,-0.367554 14.41171,-1.048522 28.35935,-1.513262 13.94764,-0.46474 26.09764,-1.173609 27,-1.575265 0.90236,-0.401656 34.80465,-0.816684 75.33844,-0.922284 80.4107,-0.209489 75.37427,-0.587806 74.14285,5.569325 -1.0219,5.109476 -2.53539,5.503465 -19.46355,5.066714 -17.38585,-0.448559 -19.03599,-0.46491 -49.37709,-0.489256 -53.25105,-0.04273 -71.0738,0.07088 -103.65981,0.660743 -29.92202,0.541644 -34.73669,0.427083 -35.22218,-0.838079 z m 1.23875,-2.556622 C 199.75007,39.189079 199.77647,39.024981 201,39 c 1.33333,-0.02722 1.33333,-0.138334 0,-1 -0.825,-0.533156 -2.175,-0.944637 -3,-0.914402 -0.98906,0.03625 -0.81874,0.34772 0.5,0.914402 1.1,0.472686 1.41976,0.891058 0.71057,0.929715 -1.05257,0.05737 -1.05257,0.326543 0,1.465325 0.70919,0.767271 1.67497,1.161021 2.14619,0.875 0.47122,-0.286022 0.24622,-0.906899 -0.5,-1.379727 z"
         style="fill:#82b86f" />
      <path
         id="path849"
         d="M 199.40296,42.069628 C 199.08967,41.756333 198.42083,41.44375 197.91667,41.375 197.4125,41.30625 196.55,41.19375 196,41.125 c -0.55,-0.06875 -1,-0.8 -1,-1.625 0,-0.825 -0.75,-1.5 -1.66667,-1.5 -2.64952,0 -1.13384,-0.810062 3.43745,-1.837163 2.79653,-0.628337 4.00559,-0.610014 3.59491,0.05448 -0.39372,0.63705 0.79125,0.794509 3.25775,0.432889 2.13211,-0.312592 11.30156,-0.820467 20.37656,-1.12861 34.35467,-1.166518 45.53079,-1.735555 46.5,-2.367571 0.55,-0.358651 31.4875,-0.666757 68.75,-0.684682 l 67.75,-0.03259 -0.0153,3.531622 c -0.0308,7.093711 8.98108,6.524226 -104.4619,6.60125 -56.40261,0.0383 -102.80653,-0.186704 -103.11983,-0.5 z m 1.4538,-2.179315 C 199.75007,39.189079 199.77647,39.024981 201,39 c 1.33333,-0.02722 1.33333,-0.138334 0,-1 -0.825,-0.533156 -2.175,-0.944637 -3,-0.914402 -0.98906,0.03625 -0.81874,0.34772 0.5,0.914402 1.1,0.472686 1.41976,0.891058 0.71057,0.929715 -1.05257,0.05737 -1.05257,0.326543 0,1.465325 0.70919,0.767271 1.67497,1.161021 2.14619,0.875 0.47122,-0.286022 0.24622,-0.906899 -0.5,-1.379727 z"
         style="fill:#78c559" />
      <path
         id="path847"
         d="m 317.81144,42.478111 c -0.19818,-0.198184 -14.97433,-0.433828 -32.83589,-0.523652 -17.86155,-0.08982 -33.26271,-0.371542 -34.2248,-0.626037 -1.39255,-0.368366 -1.53831,-0.856848 -0.71481,-2.395571 0.9036,-1.6884 0.68218,-1.945797 -1.75076,-2.035212 -2.59622,-0.09542 -2.55159,-0.157371 0.65786,-0.913183 1.89368,-0.445952 5.26868,-0.63431 7.5,-0.418574 2.86185,0.276698 3.61509,0.108342 2.55696,-0.571505 -1.06507,-0.684309 0.23972,-1.005196 4.5,-1.106687 3.3,-0.07861 7.125,-0.349784 8.5,-0.602598 1.375,-0.252814 32.3125,-0.541728 68.75,-0.642031 L 407,32.460693 v 3.335395 c 0,7.411934 3.07931,6.937428 -45.37952,6.992752 -23.89678,0.02728 -43.61085,-0.112546 -43.80904,-0.310729 z M 255.52699,37.043674 C 255.20192,36.517695 254.27536,36.34084 253.46797,36.650663 251.40086,37.443889 251.64445,38 254.05902,38 c 1.13246,0 1.79305,-0.430347 1.46797,-0.956326 z"
         style="fill:#6ab452" />
      <path
         id="path845"
         d="m 321.56494,41.895069 c 0.20558,-0.332711 -0.84993,-0.620841 -2.34558,-0.640288 -8.89306,-0.115632 -12.88603,-0.717352 -12.88603,-1.94186 0,-0.733782 1.10277,-1.312921 2.5,-1.312921 5.19478,0 1.0965,-1.147953 -4.48809,-1.25714 -3.21488,-0.06286 -4.60774,-0.285603 -3.09524,-0.494994 1.55226,-0.214895 2.75,-1.008611 2.75,-1.822364 0,-1.065249 1.16441,-1.397611 4.45975,-1.272966 2.45287,0.09278 4.29605,0.433913 4.09596,0.758076 -0.20008,0.324164 0.71505,0.654099 2.03363,0.733189 1.31858,0.07909 2.14885,-0.258409 1.84503,-0.75 C 316.13055,33.402211 316.83508,33 318,33 c 1.34635,0 1.85807,0.420633 1.40451,1.154508 -0.47323,0.765698 -0.27053,0.880721 0.60188,0.341542 1.76865,-1.093084 13.1781,-1.502504 53.24361,-1.91061 L 407,32.241664 v 3.444909 c 0,1.894701 -0.44869,4.283304 -0.9971,5.308008 -0.95071,1.776425 -2.94667,1.854778 -42.90442,1.684258 -23.04903,-0.09836 -41.73912,-0.451058 -41.53354,-0.78377 z m -6.83577,-5.499236 c -0.33229,-0.332291 -1.1948,-0.367818 -1.91667,-0.07895 -0.79773,0.319226 -0.56078,0.556183 0.60417,0.604167 1.05416,0.04342 1.64479,-0.192928 1.3125,-0.52522 z"
         style="fill:#56a647" />
      <path
         id="path843"
         d="m 371.87662,42.063 c -1.99286,-0.38885 -5.63083,-0.622412 -8.08437,-0.519026 l -4.46099,0.187975 0.23003,-3.615974 c 0.12652,-1.988786 0.27699,-4.13446 0.33437,-4.768164 0.0759,-0.838397 6.50443,-1.113101 23.60434,-1.008666 l 23.5,0.143523 v 3.324407 c 0,7.047652 -0.37592,7.206167 -16.78518,7.077926 -8.09315,-0.06325 -16.34534,-0.43315 -18.3382,-0.822001 z m -16.60759,-9.755991 c 0.97297,-0.253543 2.32297,-0.236869 3,0.03705 0.67703,0.273923 -0.11903,0.481368 -1.76903,0.460988 -1.65,-0.02038 -2.20394,-0.244498 -1.23097,-0.498042 z"
         style="fill:#4d9846" />
      <path
         id="path841"
         d="M 377.07949,41.166434 C 375.19821,40.799895 373.43753,39.825 373.16687,39 c -0.42197,-1.286203 -0.25514,-1.304384 1.17051,-0.127555 1.53408,1.266341 2.11602,0.867936 1.75475,-1.201328 -0.0796,-0.455886 1.41798,-0.694249 3.32794,-0.529696 1.90996,0.164552 3.79679,-0.02495 4.19296,-0.421117 C 384.0092,36.324137 385.28321,36 386.44416,36 c 1.16096,0 3.15993,-0.734818 4.44216,-1.63293 1.80599,-1.264962 2.50488,-1.352135 3.10146,-0.386847 0.4738,0.766632 0.91289,0.848763 1.14117,0.213457 0.42451,-1.181413 9.27077,-2.182708 10.82072,-1.224783 0.86206,0.532777 -0.24352,5.747956 -1.68628,7.954492 -0.47994,0.734015 -23.60288,0.940753 -27.1839,0.243045 z m -7.61227,-6.032545 c -1.44279,-1.442796 0.13826,-2.054018 4.98341,-1.92654 2.99784,0.07887 5.24504,0.476053 4.99377,0.882619 -0.25128,0.406566 0.10844,0.959157 0.79937,1.22798 0.69093,0.268822 -1.34602,0.442507 -4.52655,0.385966 -3.18053,-0.05654 -5.99303,-0.313053 -6.25,-0.570025 z"
         style="fill:#44983c" />
      <path
         id="path839"
         d="M 400.75,41.310674 C 399.7875,41.059147 399,39.938203 399,38.819687 c 0,-1.210187 -0.50615,-1.843916 -1.25,-1.565061 -0.6875,0.257731 -2.15,0.112505 -3.25,-0.322726 -1.89514,-0.74984 -1.88203,-0.795015 0.25,-0.861615 2.16319,-0.06757 3.05723,-1.452175 1.5,-2.323057 -0.4125,-0.230691 -0.075,-0.210128 0.75,0.0457 0.825,0.255823 2.18291,0.540873 3.01758,0.633445 0.83467,0.09257 2.03811,0.490018 2.67432,0.883214 0.6745,0.416867 1.34837,-0.01976 1.61642,-1.04734 0.30021,-1.150924 0.49992,-0.850749 0.57568,0.865312 0.0638,1.445156 -0.55405,3.183644 -1.37299,3.863307 -0.81894,0.679663 -1.24239,1.634764 -0.94098,2.122445 0.3014,0.487681 0.40895,0.834492 0.23899,0.770692 -0.16996,-0.0638 -1.09652,-0.321797 -2.05902,-0.573325 z"
         style="fill:#3d9536" />
    </g>
  </g>
</svg>