<?xml version="1.0" standalone="no"?>
<!DOCTYPE svg PUBLIC "-//W3C//DTD SVG 20010904//EN"
 "http://www.w3.org/TR/2001/REC-SVG-20010904/DTD/svg10.dtd">
<svg version="1.0" xmlns="http://www.w3.org/2000/svg"
 width="336.000000pt" height="18.000000pt" viewBox="0 0 336.000000 18.000000"
 preserveAspectRatio="xMidYMid meet">
<metadata>
Created by potrace 1.16, written by Peter Selinger 2001-2019
</metadata>
<g transform="translate(0.000000,18.000000) scale(0.100000,-0.100000)"
fill="#a56799" stroke="none">
<path d="M2687 157 c-7 -4 -46 -7 -87 -7 -41 1 -156 -4 -255 -9 -252 -14 -822
-30 -1335 -37 -239 -4 -444 -10 -454 -14 -11 -4 192 -10 450 -14 258 -4 588
-12 734 -17 146 -5 285 -9 310 -8 78 1 614 -22 630 -28 41 -14 218 -4 289 16
40 11 120 26 177 33 57 7 104 15 104 18 0 3 -46 11 -102 18 -57 6 -137 21
-178 32 -76 22 -260 33 -283 17z"/>
</g>
</svg>
