<?xml version="1.0" standalone="no"?>
<!DOCTYPE svg PUBLIC "-//W3C//DTD SVG 20010904//EN"
 "http://www.w3.org/TR/2001/REC-SVG-20010904/DTD/svg10.dtd">
<svg version="1.0" xmlns="http://www.w3.org/2000/svg"
 width="345.000000pt" height="18.000000pt" viewBox="0 0 345.000000 18.000000"
 preserveAspectRatio="xMidYMid meet">
<metadata>
Created by potrace 1.16, written by Peter Selinger 2001-2019
</metadata>
<g transform="translate(0.000000,18.000000) scale(0.100000,-0.100000)"
fill="#4eaff7" stroke="none">
<path d="M32 136 c7 -11 11 -25 10 -29 -1 -5 2 -6 7 -3 5 3 15 -1 22 -10 24
-29 71 -45 157 -55 84 -8 3191 -14 3199 -5 3 2 -2 17 -11 34 -8 16 -14 31 -11
33 2 2 -564 5 -1258 7 -694 2 -1275 4 -1292 4 -16 1 -183 0 -371 -1 l-340 -3
-62 25 c-60 24 -61 24 -50 3z"/>
</g>
</svg>
